<?xml version="1.0" standalone="no"?>
<!DOCTYPE svg PUBLIC "-//W3C//DTD SVG 1.0//EN" "http://www.w3.org/TR/2001/REC-SVG-20010904/DTD/svg10.dtd">
<svg xmlns="http://www.w3.org/2000/svg" xmlns:xlink="http://www.w3.org/1999/xlink" id="body_1" width="256" height="192">

<g transform="matrix(0.375 0 0 0.375 32.000008 -0)">
    <path d="M473.655 88.276L38.345 88.276C 17.167 88.276 0 105.443 0 126.621L0 126.621L0 200.09201L512 200.09201L512 126.62101C 512 105.443 494.833 88.276 473.655 88.276z" stroke="none" fill="#FF4B55" fill-rule="nonzero" />
    <path d="M0 385.379C 0 406.556 17.167 423.724 38.345 423.724L38.345 423.724L473.655 423.724C 494.832 423.724 512 406.557 512 385.379L512 385.379L512 311.908L0 311.908L0 385.379z" stroke="none" fill="#41479B" fill-rule="nonzero" />
    <path d="M0 200.09L512 200.09L512 311.9L0 311.9z" stroke="none" fill="#F5F5F5" fill-rule="nonzero" />
	<g>
	</g>
	<g>
	</g>
	<g>
	</g>
	<g>
	</g>
	<g>
	</g>
	<g>
	</g>
	<g>
	</g>
	<g>
	</g>
	<g>
	</g>
	<g>
	</g>
	<g>
	</g>
	<g>
	</g>
	<g>
	</g>
	<g>
	</g>
	<g>
	</g>
</g>
</svg>